<svg fill="none" height="48" viewBox="0 0 48 48" width="48" xmlns="http://www.w3.org/2000/svg" xmlns:xlink="http://www.w3.org/1999/xlink"><filter id="a" color-interpolation-filters="sRGB" filterUnits="userSpaceOnUse" height="54" width="48" x="0" y="-3"><feFlood flood-opacity="0" result="BackgroundImageFix"/><feBlend in="SourceGraphic" in2="BackgroundImageFix" mode="normal" result="shape"/><feColorMatrix in="SourceAlpha" result="hardAlpha" type="matrix" values="0 0 0 0 0 0 0 0 0 0 0 0 0 0 0 0 0 0 127 0"/><feOffset dy="-3"/><feGaussianBlur stdDeviation="1.5"/><feComposite in2="hardAlpha" k2="-1" k3="1" operator="arithmetic"/><feColorMatrix type="matrix" values="0 0 0 0 0 0 0 0 0 0 0 0 0 0 0 0 0 0 0.1 0"/><feBlend in2="shape" mode="normal" result="effect1_innerShadow_3051_46911"/><feColorMatrix in="SourceAlpha" result="hardAlpha" type="matrix" values="0 0 0 0 0 0 0 0 0 0 0 0 0 0 0 0 0 0 127 0"/><feOffset dy="3"/><feGaussianBlur stdDeviation="1.5"/><feComposite in2="hardAlpha" k2="-1" k3="1" operator="arithmetic"/><feColorMatrix type="matrix" values="0 0 0 0 1 0 0 0 0 1 0 0 0 0 1 0 0 0 0.1 0"/><feBlend in2="effect1_innerShadow_3051_46911" mode="normal" result="effect2_innerShadow_3051_46911"/><feColorMatrix in="SourceAlpha" result="hardAlpha" type="matrix" values="0 0 0 0 0 0 0 0 0 0 0 0 0 0 0 0 0 0 127 0"/><feMorphology in="SourceAlpha" operator="erode" radius="1" result="effect3_innerShadow_3051_46911"/><feOffset/><feComposite in2="hardAlpha" k2="-1" k3="1" operator="arithmetic"/><feColorMatrix type="matrix" values="0 0 0 0 0.0627451 0 0 0 0 0.0941176 0 0 0 0 0.156863 0 0 0 0.24 0"/><feBlend in2="effect2_innerShadow_3051_46911" mode="normal" result="effect3_innerShadow_3051_46911"/></filter><filter id="b" color-interpolation-filters="sRGB" filterUnits="userSpaceOnUse" height="42" width="36" x="6" y="5.25"><feFlood flood-opacity="0" result="BackgroundImageFix"/><feColorMatrix in="SourceAlpha" result="hardAlpha" type="matrix" values="0 0 0 0 0 0 0 0 0 0 0 0 0 0 0 0 0 0 127 0"/><feMorphology in="SourceAlpha" operator="erode" radius="1.5" result="effect1_dropShadow_3051_46911"/><feOffset dy="2.25"/><feGaussianBlur stdDeviation="2.25"/><feComposite in2="hardAlpha" operator="out"/><feColorMatrix type="matrix" values="0 0 0 0 0.141176 0 0 0 0 0.141176 0 0 0 0 0.141176 0 0 0 0.1 0"/><feBlend in2="BackgroundImageFix" mode="normal" result="effect1_dropShadow_3051_46911"/><feBlend in="SourceGraphic" in2="effect1_dropShadow_3051_46911" mode="normal" result="shape"/></filter><linearGradient id="c" gradientUnits="userSpaceOnUse" x1="24" x2="26" y1=".000001" y2="48"><stop offset="0" stop-color="#fff" stop-opacity="0"/><stop offset="1" stop-color="#fff" stop-opacity=".12"/></linearGradient><linearGradient id="d" gradientUnits="userSpaceOnUse" x1="24" x2="24" y1="9" y2="39"><stop offset="0" stop-color="#fff" stop-opacity=".8"/><stop offset="1" stop-color="#fff" stop-opacity=".5"/></linearGradient><linearGradient id="e" gradientUnits="userSpaceOnUse" x1="24" x2="24" y1="0" y2="48"><stop offset="0" stop-color="#fff" stop-opacity=".12"/><stop offset="1" stop-color="#fff" stop-opacity="0"/></linearGradient><clipPath id="f"><rect height="48" rx="12" width="48"/></clipPath><g filter="url(#a)"><g clip-path="url(#f)"><rect fill="#ff4405" height="48" rx="12" width="48"/><path d="m0 0h48v48h-48z" fill="url(#c)"/><g filter="url(#b)"><path clip-rule="evenodd" d="m19.2859 9c-1.6923 0-3.3152.67225-4.5118 1.8689l-5.7741 5.774v2.643c0 1.8673.80208 3.5472 2.0805 4.7141-1.27842 1.1668-2.0805 2.8468-2.0805 4.714v2.643l5.7741 5.7741c1.1966 1.1967 2.8195 1.8689 4.5118 1.8689 1.8673 0 3.5473-.8021 4.7141-2.0805 1.1668 1.2784 2.8468 2.0805 4.7141 2.0805 1.6923 0 3.3152-.6722 4.5118-1.8689l5.7741-5.7741v-2.643c0-1.8672-.802-3.5472-2.0805-4.714 1.2785-1.1669 2.0805-2.8468 2.0805-4.7141v-2.643l-5.7741-5.774c-1.1966-1.19665-2.8195-1.8689-4.5118-1.8689-1.8673 0-3.5473.80208-4.7141 2.0805-1.1668-1.27842-2.8468-2.0805-4.7141-2.0805zm9.0332 15c-.0719-.0656-.1425-.1331-.2116-.2022l-4.1075-4.1075-4.1074 4.1075c-.0692.0691-.1398.1366-.2117.2022.0719.0656.1425.133.2117.2022l4.1074 4.1074 4.1075-4.1074c.0691-.0692.1397-.1366.2116-.2022zm-2.6524 7.357v1.2623c0 1.683 1.3644 3.0474 3.0474 3.0474.8082 0 1.5833-.3211 2.1548-.8926l4.7978-4.7978v-1.2623c0-1.683-1.3644-3.0474-3.0474-3.0474-.8082 0-1.5833.3211-2.1548.8926zm-3.3334 0-4.7978-4.7978c-.5715-.5715-1.3466-.8926-2.1548-.8926-1.683 0-3.0474 1.3644-3.0474 3.0474v1.2623l4.7978 4.7978c.5715.5715 1.3466.8926 2.1548.8926 1.683 0 3.0474-1.3644 3.0474-3.0474zm0-15.9763v1.2622l-4.7978 4.7979c-.5715.5715-1.3466.8925-2.1548.8925-1.683 0-3.0474-1.3644-3.0474-3.0474v-1.2622l4.7978-4.7978c.5715-.5715 1.3466-.8926 2.1548-.8926 1.683 0 3.0474 1.3644 3.0474 3.0474zm8.1312 6.0601-4.7978-4.7979v-1.2622c0-1.683 1.3644-3.0474 3.0474-3.0474.8082 0 1.5833.3211 2.1548.8926l4.7978 4.7978v1.2622c0 1.683-1.3644 3.0474-3.0474 3.0474-.8082 0-1.5833-.321-2.1548-.8925z" fill="url(#d)" fill-rule="evenodd"/></g></g><rect height="46" rx="11" stroke="url(#e)" stroke-width="2" width="46" x="1" y="1"/></g></svg>